<mxfile host="app.diagrams.net" modified="2020-12-06T08:50:26.280Z" agent="5.0 (Windows)" etag="8jweXJPF4ALJl1g5m_vc" version="13.10.9" type="github">
  <diagram id="i50wgoMUxbim1TL-9JWq" name="Page-1">
    <mxGraphModel dx="1038" dy="547" grid="1" gridSize="10" guides="1" tooltips="1" connect="1" arrows="1" fold="1" page="1" pageScale="1" pageWidth="1169" pageHeight="827" math="0" shadow="0">
      <root>
        <mxCell id="0" />
        <mxCell id="1" parent="0" />
        <mxCell id="qKIXarYdttRRwaTGImXm-1" value="CASH BOARD OF SURVEY" style="swimlane;" vertex="1" parent="1">
          <mxGeometry x="10" y="10" width="1150" height="810" as="geometry" />
        </mxCell>
        <mxCell id="qKIXarYdttRRwaTGImXm-2" value="Start" style="rounded=1;whiteSpace=wrap;html=1;" vertex="1" parent="qKIXarYdttRRwaTGImXm-1">
          <mxGeometry x="295" y="41" width="90" height="50" as="geometry" />
        </mxCell>
        <mxCell id="qKIXarYdttRRwaTGImXm-5" value="The DDF Office writes to the Director seeking approval to conduct cash board of survey with a list of officers for the exercise" style="rounded=0;whiteSpace=wrap;html=1;" vertex="1" parent="qKIXarYdttRRwaTGImXm-1">
          <mxGeometry x="260" y="160" width="170" height="90" as="geometry" />
        </mxCell>
        <mxCell id="qKIXarYdttRRwaTGImXm-4" value="" style="edgeStyle=orthogonalEdgeStyle;rounded=0;orthogonalLoop=1;jettySize=auto;html=1;entryX=0.5;entryY=0;entryDx=0;entryDy=0;" edge="1" parent="qKIXarYdttRRwaTGImXm-1" source="qKIXarYdttRRwaTGImXm-2">
          <mxGeometry relative="1" as="geometry">
            <mxPoint x="340" y="160" as="targetPoint" />
          </mxGeometry>
        </mxCell>
        <mxCell id="qKIXarYdttRRwaTGImXm-8" value="&lt;div&gt;Director&lt;/div&gt;&lt;div&gt;approves?&lt;/div&gt;" style="rhombus;whiteSpace=wrap;html=1;" vertex="1" parent="qKIXarYdttRRwaTGImXm-1">
          <mxGeometry x="275" y="310" width="130" height="80" as="geometry" />
        </mxCell>
        <mxCell id="qKIXarYdttRRwaTGImXm-7" value="" style="edgeStyle=orthogonalEdgeStyle;rounded=0;orthogonalLoop=1;jettySize=auto;html=1;" edge="1" parent="qKIXarYdttRRwaTGImXm-1" target="qKIXarYdttRRwaTGImXm-8">
          <mxGeometry relative="1" as="geometry">
            <mxPoint x="340" y="250" as="sourcePoint" />
            <mxPoint x="340" y="310" as="targetPoint" />
          </mxGeometry>
        </mxCell>
        <mxCell id="qKIXarYdttRRwaTGImXm-9" value="Director comments" style="shape=note;whiteSpace=wrap;html=1;backgroundOutline=1;darkOpacity=0.05;" vertex="1" parent="qKIXarYdttRRwaTGImXm-1">
          <mxGeometry x="90" y="285" width="80" height="100" as="geometry" />
        </mxCell>
        <mxCell id="qKIXarYdttRRwaTGImXm-11" value="" style="edgeStyle=orthogonalEdgeStyle;rounded=0;orthogonalLoop=1;jettySize=auto;html=1;entryX=0;entryY=0;entryDx=80;entryDy=65;entryPerimeter=0;" edge="1" parent="qKIXarYdttRRwaTGImXm-1" source="qKIXarYdttRRwaTGImXm-8" target="qKIXarYdttRRwaTGImXm-9">
          <mxGeometry relative="1" as="geometry">
            <mxPoint x="190" y="350" as="targetPoint" />
          </mxGeometry>
        </mxCell>
        <mxCell id="qKIXarYdttRRwaTGImXm-13" value="" style="edgeStyle=orthogonalEdgeStyle;rounded=0;orthogonalLoop=1;jettySize=auto;html=1;entryX=0;entryY=0.5;entryDx=0;entryDy=0;" edge="1" parent="qKIXarYdttRRwaTGImXm-1" source="qKIXarYdttRRwaTGImXm-9" target="qKIXarYdttRRwaTGImXm-5">
          <mxGeometry relative="1" as="geometry">
            <mxPoint x="130" y="195" as="targetPoint" />
            <Array as="points">
              <mxPoint x="130" y="205" />
            </Array>
          </mxGeometry>
        </mxCell>
        <mxCell id="qKIXarYdttRRwaTGImXm-16" value="no" style="text;html=1;strokeColor=none;fillColor=none;align=center;verticalAlign=middle;whiteSpace=wrap;rounded=0;" vertex="1" parent="qKIXarYdttRRwaTGImXm-1">
          <mxGeometry x="200" y="325" width="40" height="20" as="geometry" />
        </mxCell>
        <mxCell id="qKIXarYdttRRwaTGImXm-17" value="yes" style="text;html=1;strokeColor=none;fillColor=none;align=center;verticalAlign=middle;whiteSpace=wrap;rounded=0;" vertex="1" parent="qKIXarYdttRRwaTGImXm-1">
          <mxGeometry x="338" y="420" width="40" height="20" as="geometry" />
        </mxCell>
        <mxCell id="qKIXarYdttRRwaTGImXm-19" value="" style="edgeStyle=orthogonalEdgeStyle;rounded=0;orthogonalLoop=1;jettySize=auto;html=1;" edge="1" parent="1" source="qKIXarYdttRRwaTGImXm-14" target="qKIXarYdttRRwaTGImXm-18">
          <mxGeometry relative="1" as="geometry" />
        </mxCell>
        <mxCell id="qKIXarYdttRRwaTGImXm-14" value="Each of the selected members is notified of their appointment" style="whiteSpace=wrap;html=1;" vertex="1" parent="1">
          <mxGeometry x="260" y="490" width="180" height="60" as="geometry" />
        </mxCell>
        <mxCell id="qKIXarYdttRRwaTGImXm-15" value="" style="edgeStyle=orthogonalEdgeStyle;rounded=0;orthogonalLoop=1;jettySize=auto;html=1;" edge="1" parent="1" source="qKIXarYdttRRwaTGImXm-8" target="qKIXarYdttRRwaTGImXm-14">
          <mxGeometry relative="1" as="geometry" />
        </mxCell>
        <mxCell id="qKIXarYdttRRwaTGImXm-21" value="" style="edgeStyle=orthogonalEdgeStyle;rounded=0;orthogonalLoop=1;jettySize=auto;html=1;" edge="1" parent="1" source="qKIXarYdttRRwaTGImXm-18" target="qKIXarYdttRRwaTGImXm-20">
          <mxGeometry relative="1" as="geometry" />
        </mxCell>
        <mxCell id="qKIXarYdttRRwaTGImXm-18" value="Survey team follows the following procedures during the exercise" style="whiteSpace=wrap;html=1;" vertex="1" parent="1">
          <mxGeometry x="270" y="620" width="160" height="70" as="geometry" />
        </mxCell>
        <mxCell id="qKIXarYdttRRwaTGImXm-20" value="" style="whiteSpace=wrap;html=1;" vertex="1" parent="1">
          <mxGeometry x="530" y="625" width="120" height="60" as="geometry" />
        </mxCell>
      </root>
    </mxGraphModel>
  </diagram>
</mxfile>
